<svg xmlns="http://www.w3.org/2000/svg"  viewBox="0 0 64 64" width="64px" height="64px"><path d="M 31.869141 4.8183594 C 26.635619 4.8296148 22.879272 6.9665173 20.472656 9.8496094 C 17.336176 13.607069 16.410609 18.289952 16.832031 21.433594 C 15.90682 22.17557 15.212953 23.13158 14.824219 24.109375 C 14.41376 25.141815 14.26724 26.197944 14.5 27.160156 C 14.73276 28.122368 15.575773 29.048743 16.697266 29.125 C 17.61323 29.18747 18.475546 28.92204 19.033203 28.341797 C 19.59086 27.761554 19.794623 27.002631 19.837891 26.259766 C 19.910751 25.008781 19.534021 23.674946 19.048828 22.414062 C 19.541729 22.21763 20.082575 22.08379 20.720703 22.105469 C 22.023082 22.149729 23.116821 22.462837 24.443359 23.189453 C 23.888523 24.039669 23.569539 25.069768 23.605469 26.199219 C 23.627569 26.893885 23.781657 27.619403 24.25 28.236328 C 24.718343 28.853254 25.537376 29.263579 26.443359 29.271484 C 27.361654 29.279484 28.206362 28.904179 28.671875 28.263672 C 29.137388 27.623165 29.226357 26.869662 29.166016 26.171875 C 29.057783 24.920277 28.483068 23.755731 27.613281 22.923828 C 29.170233 22.057272 31.086228 21.854366 32.730469 22.380859 C 34.908544 23.078288 36.638672 24.881617 36.638672 28.382812 C 36.638672 30.177674 36.081895 31.429435 35.244141 32.322266 C 34.406387 33.215097 33.247802 33.755569 31.984375 33.935547 C 29.457521 34.295503 26.680694 33.16546 25.65625 30.90625 A 1.0001 1.0001 0 0 0 24.744141 30.318359 L 15.914062 30.318359 C 13.752655 30.318359 11.978516 32.093374 11.978516 34.255859 C 11.978516 36.417267 13.751579 38.191406 15.914062 38.191406 L 21.980469 38.191406 C 22.008469 38.192606 25.320149 38.331525 28.599609 39.720703 C 30.24628 40.418232 31.852677 41.421408 33.027344 42.828125 C 34.20201 44.234842 34.978516 46.032081 34.978516 48.521484 C 34.978516 50.988766 34.147359 52.591102 32.871094 53.669922 C 31.594828 54.748742 29.794379 55.296069 27.832031 55.3125 C 24.546686 55.34001 21.048286 53.769564 19.080078 51.314453 C 20.425795 51.573586 21.787262 51.786469 23.070312 51.759766 C 26.299616 51.692556 29.063918 50.967672 30.605469 49.794922 C 31.985377 48.74469 32.614931 47.207313 32.074219 45.912109 C 31.53333 44.616484 30.076693 43.914063 28.318359 43.914062 C 26.236404 43.914062 23.243906 44.836045 20.675781 45.984375 C 19.391719 46.55854 18.242009 47.185417 17.390625 47.861328 C 17.167249 48.038665 17.023868 48.256942 16.841797 48.451172 C 16.031614 48.107562 15.169085 47.871083 14.464844 47.339844 C 13.315636 46.473535 12.924527 45.733083 12.822266 45.121094 C 12.720004 44.509104 12.901686 43.914292 13.261719 43.322266 C 13.981787 42.138213 15.353516 41.228516 15.353516 41.228516 A 1.0008031 1.0008031 0 0 0 14.283203 39.537109 C 14.283203 39.537109 12.599917 40.561256 11.552734 42.283203 C 11.029143 43.144177 10.648027 44.244787 10.849609 45.451172 C 11.051133 46.657203 11.832273 47.859098 13.259766 48.935547 C 14.182262 49.631426 15.189588 50.131497 16.222656 50.548828 C 16.237616 50.590198 16.193941 50.627428 16.212891 50.667969 C 18.160026 54.977082 23.209743 57.351349 27.849609 57.3125 C 30.171886 57.29306 32.440344 56.652664 34.162109 55.197266 C 35.883875 53.741867 36.978516 51.463702 36.978516 48.521484 C 36.978516 45.601388 36.008896 43.279001 34.5625 41.546875 C 33.116104 39.814749 31.226986 38.661752 29.378906 37.878906 C 25.682748 36.313215 22.037109 36.191406 22.037109 36.191406 A 1.0001 1.0001 0 0 0 22 36.191406 L 15.914062 36.191406 C 14.832548 36.191406 13.978516 35.336452 13.978516 34.255859 C 13.978516 33.174344 14.833471 32.318359 15.914062 32.318359 L 24.248047 32.318359 C 25.886121 35.084322 29.199686 36.352766 32.265625 35.916016 C 33.914573 35.681119 35.51216 34.960669 36.703125 33.691406 C 37.89409 32.422143 38.638672 30.608951 38.638672 28.382812 C 38.638672 24.170009 36.252269 21.409134 33.339844 20.476562 C 30.844879 19.677664 28.034045 20.172523 25.863281 21.759766 C 23.957474 20.633207 22.324433 20.159607 20.789062 20.107422 C 20.051976 20.082382 19.378073 20.193882 18.757812 20.388672 C 18.720083 17.89586 19.574734 14.045654 22.007812 11.130859 C 24.96557 7.5875073 29.996795 5.2394711 38.703125 7.9550781 A 1.0001 1.0001 0 0 0 38.712891 7.9570312 C 43.510892 9.3964317 46.658831 11.921249 48.226562 16.0625 C 49.507371 19.445825 49.622964 24.086851 48.464844 30.046875 L 47.480469 26.068359 A 1.0001 1.0001 0 0 0 45.517578 26.185547 L 44.177734 37.005859 A 1.0001 1.0001 0 0 0 45.169922 38.128906 C 46.356669 38.128906 47.298759 39.178019 47.441406 40.302734 C 47.512726 40.865092 47.395996 41.400744 47.025391 41.873047 C 46.654784 42.345349 45.993355 42.79317 44.8125 43.017578 A 1.0001 1.0001 0 0 0 44 44 C 44 48.166667 45.005859 57.111328 45.005859 57.111328 A 1.0003551 1.0003551 0 1 0 46.994141 56.888672 C 46.994141 56.888672 46.146798 48.795073 46.052734 44.679688 C 47.13031 44.327672 48.037015 43.824395 48.599609 43.107422 C 49.316128 42.194287 49.555958 41.077174 49.425781 40.050781 C 49.210322 38.35197 47.984602 36.843666 46.273438 36.351562 L 46.837891 31.800781 L 47.550781 34.6875 A 1.0001 1.0001 0 0 0 49.486328 34.707031 C 51.718906 26.408735 51.891674 20.094468 50.097656 15.355469 C 48.303638 10.61647 44.489108 7.6035683 39.287109 6.0429688 C 36.978595 5.3237813 34.863616 4.9444571 32.935547 4.8457031 C 32.573477 4.8271582 32.218042 4.817609 31.869141 4.8183594 z M 17.322266 23.980469 C 17.539955 24.757644 17.872918 25.610213 17.841797 26.144531 C 17.815567 26.594915 17.69614 26.848462 17.591797 26.957031 C 17.487454 27.065601 17.34752 27.165885 16.833984 27.130859 C 16.550977 27.111619 16.540068 27.089239 16.443359 26.689453 C 16.346649 26.289665 16.396929 25.570669 16.683594 24.849609 C 16.81204 24.526524 17.118581 24.281175 17.322266 23.980469 z M 26.152344 24.234375 C 26.530916 24.560598 27.106805 25.591275 27.171875 26.34375 C 27.205285 26.730088 27.126114 26.989617 27.054688 27.087891 C 26.983268 27.186161 26.922642 27.275499 26.460938 27.271484 C 26.048921 27.267884 25.961001 27.181794 25.84375 27.027344 C 25.726499 26.872894 25.616792 26.5521 25.603516 26.134766 C 25.580176 25.401186 25.947042 24.580016 26.152344 24.234375 z M 28.318359 45.914062 C 29.560026 45.914062 30.100404 46.376719 30.228516 46.683594 C 30.356627 46.990468 30.327686 47.493381 29.394531 48.203125 A 1.0001 1.0001 0 0 0 29.394531 48.205078 C 28.566082 48.835328 25.938245 49.699224 23.029297 49.759766 C 21.673502 49.787986 20.251617 49.620505 18.871094 49.292969 C 19.504813 48.825974 20.403138 48.297512 21.492188 47.810547 C 23.867062 46.748627 26.906315 45.914062 28.318359 45.914062 z"/></svg>